<svg width="125" height="37" viewBox="0 0 125 37" fill="none" xmlns="http://www.w3.org/2000/svg">
<path d="M49 8.18182V13.8636H34.625V8.18182H49ZM37.4091 2.95455H45.25V22.983C45.25 23.286 45.3021 23.5417 45.4062 23.75C45.5104 23.9489 45.6714 24.1004 45.8892 24.2045C46.107 24.2992 46.3864 24.3466 46.7273 24.3466C46.964 24.3466 47.2386 24.3182 47.5511 24.2614C47.8731 24.2045 48.1098 24.1572 48.2614 24.1193L49.3977 29.6307C49.0473 29.7348 48.5455 29.8627 47.892 30.0142C47.2481 30.1657 46.4811 30.2652 45.5909 30.3125C43.7917 30.4072 42.2813 30.2225 41.0597 29.7585C39.8381 29.285 38.9195 28.5417 38.304 27.5284C37.6884 26.5152 37.3902 25.2462 37.4091 23.7216V2.95455ZM62.4766 30.3977C60.1091 30.3977 58.0826 29.929 56.397 28.9915C54.7114 28.0445 53.4188 26.7282 52.5192 25.0426C51.6196 23.3475 51.1697 21.3826 51.1697 19.1477C51.1697 16.9129 51.6196 14.9527 52.5192 13.267C53.4188 11.572 54.7114 10.2557 56.397 9.31818C58.0826 8.37121 60.1091 7.89773 62.4766 7.89773C64.844 7.89773 66.8705 8.37121 68.5561 9.31818C70.2417 10.2557 71.5343 11.572 72.4339 13.267C73.3336 14.9527 73.7834 16.9129 73.7834 19.1477C73.7834 21.3826 73.3336 23.3475 72.4339 25.0426C71.5343 26.7282 70.2417 28.0445 68.5561 28.9915C66.8705 29.929 64.844 30.3977 62.4766 30.3977ZM62.5334 24.6023C63.1963 24.6023 63.7692 24.3797 64.2521 23.9347C64.7351 23.4896 65.1091 22.8551 65.3743 22.0312C65.6394 21.2074 65.772 20.2273 65.772 19.0909C65.772 17.9451 65.6394 16.965 65.3743 16.1506C65.1091 15.3267 64.7351 14.6922 64.2521 14.2472C63.7692 13.8021 63.1963 13.5795 62.5334 13.5795C61.8326 13.5795 61.2313 13.8021 60.7294 14.2472C60.2275 14.6922 59.844 15.3267 59.5788 16.1506C59.3137 16.965 59.1811 17.9451 59.1811 19.0909C59.1811 20.2273 59.3137 21.2074 59.5788 22.0312C59.844 22.8551 60.2275 23.4896 60.7294 23.9347C61.2313 24.3797 61.8326 24.6023 62.5334 24.6023Z" fill="#4EA8DE"/>
<path d="M84.8629 30.2841C83.3099 30.2841 81.88 29.8769 80.5732 29.0625C79.2758 28.2481 78.2341 27.0123 77.4482 25.3551C76.6716 23.6979 76.2834 21.6098 76.2834 19.0909C76.2834 16.4583 76.6906 14.3182 77.505 12.6705C78.3288 11.0227 79.3894 9.81534 80.6868 9.0483C81.9936 8.28125 83.3667 7.89773 84.8061 7.89773C85.8857 7.89773 86.8326 8.08712 87.647 8.46591C88.4614 8.83523 89.1432 9.33239 89.6925 9.95739C90.2417 10.5729 90.6584 11.25 90.9425 11.9886H91.0561V0.90909H98.897V30H91.1129V26.4205H90.9425C90.6394 27.1591 90.2038 27.822 89.6357 28.4091C89.0769 28.9867 88.3951 29.446 87.5902 29.7869C86.7947 30.1184 85.8857 30.2841 84.8629 30.2841ZM87.7607 24.2614C88.4804 24.2614 89.0959 24.053 89.6072 23.6364C90.1281 23.2102 90.5258 22.6136 90.8004 21.8466C91.0845 21.0701 91.2266 20.1515 91.2266 19.0909C91.2266 18.0114 91.0845 17.0881 90.8004 16.321C90.5258 15.5445 90.1281 14.9527 89.6072 14.5455C89.0959 14.1288 88.4804 13.9205 87.7607 13.9205C87.041 13.9205 86.4254 14.1288 85.9141 14.5455C85.4122 14.9527 85.0239 15.5445 84.7493 16.321C84.4841 17.0881 84.3516 18.0114 84.3516 19.0909C84.3516 20.1705 84.4841 21.0985 84.7493 21.875C85.0239 22.642 85.4122 23.2339 85.9141 23.6506C86.4254 24.0578 87.041 24.2614 87.7607 24.2614ZM113.258 30.3977C110.89 30.3977 108.864 29.929 107.178 28.9915C105.493 28.0445 104.2 26.7282 103.3 25.0426C102.401 23.3475 101.951 21.3826 101.951 19.1477C101.951 16.9129 102.401 14.9527 103.3 13.267C104.2 11.572 105.493 10.2557 107.178 9.31818C108.864 8.37121 110.89 7.89773 113.258 7.89773C115.625 7.89773 117.652 8.37121 119.337 9.31818C121.023 10.2557 122.316 11.572 123.215 13.267C124.115 14.9527 124.565 16.9129 124.565 19.1477C124.565 21.3826 124.115 23.3475 123.215 25.0426C122.316 26.7282 121.023 28.0445 119.337 28.9915C117.652 29.929 115.625 30.3977 113.258 30.3977ZM113.315 24.6023C113.978 24.6023 114.55 24.3797 115.033 23.9347C115.516 23.4896 115.89 22.8551 116.156 22.0312C116.421 21.2074 116.553 20.2273 116.553 19.0909C116.553 17.9451 116.421 16.965 116.156 16.1506C115.89 15.3267 115.516 14.6922 115.033 14.2472C114.55 13.8021 113.978 13.5795 113.315 13.5795C112.614 13.5795 112.013 13.8021 111.511 14.2472C111.009 14.6922 110.625 15.3267 110.36 16.1506C110.095 16.965 109.962 17.9451 109.962 19.0909C109.962 20.2273 110.095 21.2074 110.36 22.0312C110.625 22.8551 111.009 23.4896 111.511 23.9347C112.013 24.3797 112.614 24.6023 113.315 24.6023Z" fill="#5E60CE"/>
<g clip-path="url(#clip0_0_1)">
<path d="M11.0214 3.93302C14.1471 7.9011 15.8156 12.7944 15.7551 17.8155V19.0141L16.7864 19.6416C18.1188 20.4482 19.1126 21.6993 19.5865 23.1669C19.1704 22.8605 18.7351 22.5803 18.2831 22.3278L15.5331 20.7838L15.039 23.9001C14.9962 24.1755 14.9388 24.4485 14.8671 24.718H7.16138C7.0468 24.3655 6.9537 24.0129 6.86776 23.6463L6.24472 20.8261L3.70956 22.2362C3.28603 22.473 2.87711 22.7344 2.48495 23.0188C2.96812 21.5682 3.94111 20.3242 5.24211 19.4935L6.22323 18.866V17.7521C6.24093 12.7513 7.92955 7.89523 11.0286 3.93302H11.0214ZM11.0286 1C10.8679 1.00039 10.7127 1.05799 10.5917 1.16216L10.5273 1.21857C6.39766 5.76564 4.10454 11.6454 4.08196 17.745C2.32955 18.8643 1.03238 20.5543 0.417141 22.5197C-0.198101 24.485 -0.0922939 26.6007 0.716072 28.4971C1.56764 26.6455 2.99119 25.1058 4.78378 24.0975C4.96356 24.8642 5.20298 25.6161 5.49993 26.3467C5.53759 26.4871 5.62106 26.6114 5.73751 26.7006C5.85396 26.7898 5.99694 26.8388 6.14446 26.8402H16.0846C16.2851 26.8402 16.4856 26.6498 16.5859 26.3537C16.8757 25.6592 17.0777 24.9322 17.1874 24.1892C18.9834 25.1932 20.4082 26.7342 21.2551 28.5887C22.1123 26.7017 22.245 24.5727 21.6286 22.5967C21.0123 20.6206 19.6887 18.9319 17.9036 17.8437C17.9744 11.7082 15.6934 5.77179 11.5156 1.21857C11.4533 1.15008 11.3772 1.09524 11.2921 1.05759C11.2069 1.01993 11.1147 1.00031 11.0214 1H11.0286Z" fill="#4EA8DE"/>
<path d="M11.0213 17.1598C10.4713 17.1598 9.93351 16.9995 9.47587 16.699C9.01822 16.3986 8.66116 15.9715 8.44969 15.4716C8.23822 14.9716 8.18181 14.4213 8.28758 13.8898C8.39334 13.3584 8.65653 12.8697 9.04399 12.4853C9.43144 12.1009 9.92582 11.838 10.4648 11.7298C11.0038 11.6216 11.5632 11.6729 12.0726 11.8773C12.582 12.0816 13.0186 12.4298 13.3272 12.8781C13.6359 13.3263 13.8029 13.8545 13.8071 14.396C13.8157 14.7469 13.7539 15.0961 13.6254 15.4235C13.4969 15.751 13.304 16.0503 13.058 16.3043C12.8119 16.5583 12.5174 16.7622 12.1913 16.9041C11.8652 17.0461 11.5139 17.1234 11.1574 17.1316C11.1123 17.1387 11.0664 17.1387 11.0213 17.1316V17.1598Z" fill="#4EA8DE"/>
<path d="M14.8957 28.5958C14.7165 28.5901 14.538 28.6198 14.3706 28.683C14.2032 28.7462 14.0503 28.8416 13.9209 28.9638C13.7915 29.086 13.6881 29.2323 13.6169 29.3943C13.5458 29.5563 13.5082 29.7307 13.5063 29.9072V34.067C13.5063 34.4297 13.6527 34.7776 13.9133 35.0342C14.1738 35.2907 14.5272 35.4348 14.8957 35.4348C15.2641 35.4348 15.6175 35.2907 15.8781 35.0342C16.1386 34.7776 16.285 34.4297 16.285 34.067V29.9636C16.2907 29.7877 16.2608 29.6126 16.1971 29.4482C16.1333 29.2839 16.037 29.1337 15.9137 29.0064C15.7904 28.879 15.6425 28.7772 15.4788 28.7067C15.3151 28.6362 15.1388 28.5985 14.9601 28.5958H14.8957Z" fill="#5E60CE"/>
<path d="M7.1613 28.5957C6.97906 28.5863 6.79675 28.6129 6.62521 28.6742C6.45367 28.7355 6.29641 28.8302 6.16278 28.9525C6.02915 29.0749 5.92188 29.2224 5.84736 29.3864C5.77284 29.5504 5.73259 29.7275 5.729 29.9071V34.067C5.729 34.4297 5.87538 34.7776 6.13593 35.0341C6.39648 35.2906 6.74986 35.4348 7.11833 35.4348C7.4868 35.4348 7.84018 35.2906 8.10073 35.0341C8.36128 34.7776 8.50765 34.4297 8.50765 34.067V29.9635C8.51337 29.7877 8.48349 29.6125 8.41974 29.4482C8.35599 29.2838 8.25965 29.1336 8.13634 29.0063C8.01302 28.879 7.8652 28.7771 7.70149 28.7067C7.53777 28.6362 7.36144 28.5985 7.18278 28.5957H7.1613Z" fill="#5E60CE"/>
<path d="M10.9211 28.5958C10.7424 28.592 10.5647 28.623 10.3981 28.6869C10.2316 28.7507 10.0795 28.8463 9.95044 28.9681C9.82142 29.0899 9.71804 29.2355 9.6462 29.3966C9.57435 29.5577 9.53546 29.7312 9.53174 29.9072V35.6392C9.53174 36.002 9.67811 36.3499 9.93866 36.6064C10.1992 36.8629 10.5526 37.007 10.9211 37.007C11.2895 37.007 11.6429 36.8629 11.9035 36.6064C12.164 36.3499 12.3104 36.002 12.3104 35.6392V29.9988C12.3161 29.823 12.2862 29.6478 12.2225 29.4835C12.1587 29.3191 12.0624 29.1689 11.9391 29.0416C11.8158 28.9143 11.6679 28.8124 11.5042 28.7419C11.3405 28.6714 11.1642 28.6337 10.9855 28.631L10.9211 28.5958Z" fill="#5E60CE"/>
</g>
<defs>
<clipPath id="clip0_0_1">
<rect width="22" height="36" fill="white" transform="translate(0 1)"/>
</clipPath>
</defs>
</svg>
